# xmcd
#
# Track frame offsets:
#	150
#	15643
#	32593
#	48819
#	62039
#	78122
#	95782
#	120705
#	139733
#	148447
#	165174
#	179962
#	194632
#
# Disc length: 2805 seconds
#
# Revision: 1
# Processed by: cddbd v1.5.1PL2 Copyright (c) Steve Scherf et al.
# Submitted via: audiograbber 1.83.01
#
DISCID=b80af30d
DTITLE=Allen Finney and EBB - Allen Finney and EBB
DYEAR=2006
DGENRE=Blues
TTITLE0=Don't look down at your shoes
TTITLE1=Friends from uptown
TTITLE2=Minimal city
TTITLE3=Not now my love
TTITLE4=Mama had the blues
TTITLE5=Never too late to get straight
TTITLE6=S:t James infirmary blues
TTITLE7=Paper cup
TTITLE8=Jim Dandy
TTITLE9=Love line
TTITLE10=Big wind
TTITLE11=Little mistakes
TTITLE12=Fate steps in
EXTD=
EXTT0=
EXTT1=
EXTT2=
EXTT3=
EXTT4=
EXTT5=
EXTT6=
EXTT7=
EXTT8=
EXTT9=
EXTT10=
EXTT11=
EXTT12=
PLAYORDER=
